<svg width="24" height="24" viewBox="0 0 24 24" fill="none" xmlns="http://www.w3.org/2000/svg">
<path fill-rule="evenodd" clip-rule="evenodd" d="M7.99997 17.9728H3.99997C3.54581 17.9728 3.14868 17.6682 3.03297 17.231C2.91726 16.7939 3.11202 16.334 3.50722 16.1113C3.91592 15.8809 4.26457 15.5583 4.52511 15.1693C4.77528 14.7957 4.93749 14.3711 4.99997 13.927V11.0052C4.99997 10.9896 5.00034 10.9741 5.00107 10.9585C5.06914 9.51505 5.53056 8.11721 6.33587 6.91483C7.03633 5.86901 7.974 5.00535 9.06996 4.39169C9.19204 3.83913 9.47045 3.32779 9.87865 2.92149C10.4413 2.36148 11.2043 2.04688 12 2.04688C12.7956 2.04688 13.5587 2.36148 14.1213 2.92149C14.5295 3.32779 14.8079 3.83913 14.93 4.39169C16.0259 5.00535 16.9636 5.86901 17.6641 6.91483C18.4694 8.11721 18.9308 9.51505 18.9989 10.9585C18.9996 10.9741 19 10.9896 19 11.0052V13.927C19.0624 14.3711 19.2247 14.7957 19.4748 15.1693C19.7354 15.5583 20.084 15.8809 20.4927 16.1113C20.8879 16.334 21.0827 16.7939 20.967 17.231C20.8513 17.6682 20.4541 17.9728 20 17.9728H16C16 19.0288 15.5785 20.0415 14.8284 20.7881C14.0783 21.5348 13.0608 21.9543 12 21.9543C10.9391 21.9543 9.92169 21.5348 9.17154 20.7881C8.4214 20.0415 7.99997 19.0288 7.99997 17.9728ZM11.2929 4.32915C11.4804 4.14248 11.7348 4.03762 12 4.03762C12.2652 4.03762 12.5195 4.14248 12.7071 4.32915C12.8946 4.51582 13 4.769 13 5.03299C13 5.41789 13.2229 5.76829 13.5725 5.93283C14.5568 6.39613 15.396 7.11731 16 8.0191C16.5998 8.91465 16.9452 9.95479 17 11.0295V13.9913C17 14.0313 17.0024 14.0712 17.0072 14.1109C17.0875 14.7709 17.2996 15.4069 17.6298 15.9821H6.37018C6.70037 15.4069 6.91247 14.7709 6.99272 14.1109C6.99755 14.0712 6.99997 14.0313 6.99997 13.9913V11.0295C7.05471 9.95479 7.40016 8.91465 7.99997 8.0191C8.60014 7.12301 9.43251 6.40524 10.4088 5.94163C10.4565 5.92034 10.5022 5.89544 10.5456 5.86727C10.6689 5.7876 10.7698 5.68394 10.8449 5.5656C10.9484 5.40262 11.003 5.21178 11.0001 5.0174C11.0042 4.75905 11.109 4.51215 11.2929 4.32915ZM14 17.9728C14 18.5008 13.7893 19.0071 13.4142 19.3805C13.0391 19.7538 12.5304 19.9635 12 19.9635C11.4695 19.9635 10.9608 19.7538 10.5858 19.3805C10.2107 19.0071 9.99997 18.5008 9.99997 17.9728H14Z" fill="#DDA06B"/>
</svg>
