<svg width="24" height="24" viewBox="0 0 24 24" fill="none" xmlns="http://www.w3.org/2000/svg">
<path fill-rule="evenodd" clip-rule="evenodd" d="M12 4.97707C12 4.42734 12.4477 3.9817 13 3.9817H21C21.5523 3.9817 22 4.42734 22 4.97707C22 5.5268 21.5523 5.97244 21 5.97244H13C12.4477 5.97244 12 5.5268 12 4.97707Z" fill="#DDA06B"/>
<path fill-rule="evenodd" clip-rule="evenodd" d="M12 8.95855C12 8.40882 12.4477 7.96318 13 7.96318H18C18.5523 7.96318 19 8.40882 19 8.95855C19 9.50828 18.5523 9.95392 18 9.95392H13C12.4477 9.95392 12 9.50828 12 8.95855Z" fill="#DDA06B"/>
<path fill-rule="evenodd" clip-rule="evenodd" d="M12 14.9308C12 14.381 12.4477 13.9354 13 13.9354H21C21.5523 13.9354 22 14.381 22 14.9308C22 15.4805 21.5523 15.9261 21 15.9261H13C12.4477 15.9261 12 15.4805 12 14.9308Z" fill="#DDA06B"/>
<path fill-rule="evenodd" clip-rule="evenodd" d="M12 18.9123C12 18.3625 12.4477 17.9169 13 17.9169H18C18.5523 17.9169 19 18.3625 19 18.9123C19 19.462 18.5523 19.9076 18 19.9076H13C12.4477 19.9076 12 19.462 12 18.9123Z" fill="#DDA06B"/>
<path fill-rule="evenodd" clip-rule="evenodd" d="M2 4.97707C2 3.87761 2.89543 2.98633 4 2.98633H8C9.10457 2.98633 10 3.87761 10 4.97707V8.95855C10 10.058 9.10457 10.9493 8 10.9493H4C2.89543 10.9493 2 10.058 2 8.95855V4.97707ZM8 4.97707H4V8.95855H8V4.97707Z" fill="#DDA06B"/>
<path fill-rule="evenodd" clip-rule="evenodd" d="M2 14.9308C2 13.8313 2.89543 12.94 4 12.94H8C9.10457 12.94 10 13.8313 10 14.9308V18.9123C10 20.0117 9.10457 20.903 8 20.903H4C2.89543 20.903 2 20.0117 2 18.9123V14.9308ZM8 14.9308L4 14.9308V18.9123H8V14.9308Z" fill="#DDA06B"/>
</svg>
