<svg width="24" height="24" viewBox="0 0 24 24" fill="none" xmlns="http://www.w3.org/2000/svg">
<path fill-rule="evenodd" clip-rule="evenodd" d="M2.98512 1.99121C2.4397 1.99913 2 2.44169 2 2.98647C2 3.5362 2.44772 3.98184 3 3.98184H4.15287L4.80419 7.87163C4.80142 7.90183 4.8 7.93241 4.8 7.96333C4.8 8.10906 4.83147 8.24749 4.88801 8.37223L6.01361 15.0946C6.02309 15.1512 6.03749 15.2069 6.05663 15.2611C6.25051 15.8099 6.56164 16.3065 6.96482 16.7185C6.37153 17.264 6 18.045 6 18.9124C6 20.5616 7.34315 21.8985 9 21.8985C10.6569 21.8985 12 20.5616 12 18.9124C12 18.5634 11.9398 18.2284 11.8293 17.917H14.1707C14.0602 18.2284 14 18.5634 14 18.9124C14 20.5616 15.3431 21.8985 17 21.8985C18.6569 21.8985 20 20.5616 20 18.9124C20 18.2771 19.8007 17.6881 19.4609 17.2041C20.1465 16.7272 20.6654 16.0479 20.9434 15.2611C20.9651 15.1996 20.9807 15.1362 20.99 15.0717L21.99 8.10409C21.9953 8.06703 21.9985 8.0299 21.9996 7.99288V7.93372C21.9928 7.70613 21.9076 7.48576 21.7555 7.31116C21.5655 7.09317 21.2899 6.96795 21 6.96795H6.68046L5.98639 2.82284C5.90684 2.34774 5.49725 1.99824 5.01483 1.99121H2.98512ZM7.97069 14.6735L7.01379 8.9587H19.847L19.0254 14.6832C18.8752 15.055 18.6154 15.3737 18.2793 15.5967C17.9505 15.8149 17.5649 15.9308 17.1714 15.9311C17.1147 15.9279 17.0575 15.9263 17 15.9263H10C9.98111 15.9263 9.96223 15.9268 9.94337 15.9279C9.51054 15.9523 9.08144 15.8361 8.72072 15.5967C8.38168 15.3718 8.12029 15.0494 7.97069 14.6735ZM16 18.9124C16 18.3699 16.4361 17.9287 16.9784 17.9173C17.0157 17.919 17.053 17.9203 17.0903 17.921C17.6003 17.9665 18 18.393 18 18.9124C18 19.4621 17.5523 19.9078 17 19.9078C16.4477 19.9078 16 19.4621 16 18.9124ZM8 18.9124C8 18.3627 8.44772 17.917 9 17.917C9.55228 17.917 10 18.3627 10 18.9124C10 19.4621 9.55228 19.9078 9 19.9078C8.44772 19.9078 8 19.4621 8 18.9124Z" fill="#DDA06B"/>
</svg>
