<svg width="82" height="13" viewBox="0 0 82 13" fill="none" xmlns="http://www.w3.org/2000/svg">
<path d="M0.147727 12.5V0.863636H4.60227C5.44318 0.863636 6.14205 0.996212 6.69886 1.26136C7.25947 1.52273 7.67803 1.88068 7.95455 2.33523C8.23485 2.78977 8.375 3.30492 8.375 3.88068C8.375 4.35417 8.28409 4.75947 8.10227 5.09659C7.92045 5.42992 7.67614 5.70076 7.36932 5.90909C7.0625 6.11742 6.7197 6.26705 6.34091 6.35795V6.47159C6.75379 6.49432 7.14962 6.62121 7.52841 6.85227C7.91098 7.07955 8.22348 7.40151 8.46591 7.81818C8.70833 8.23485 8.82955 8.73864 8.82955 9.32955C8.82955 9.93182 8.68371 10.4735 8.39205 10.9545C8.10038 11.4318 7.66099 11.8087 7.07386 12.0852C6.48674 12.3617 5.74811 12.5 4.85795 12.5H0.147727ZM2.25568 10.7386H4.52273C5.28788 10.7386 5.83902 10.5928 6.17614 10.3011C6.51705 10.0057 6.6875 9.62689 6.6875 9.16477C6.6875 8.82008 6.60227 8.50947 6.43182 8.23295C6.26136 7.95265 6.01894 7.73295 5.70455 7.57386C5.39015 7.41098 5.01515 7.32955 4.57955 7.32955H2.25568V10.7386ZM2.25568 5.8125H4.34091C4.70455 5.8125 5.0322 5.74621 5.32386 5.61364C5.61553 5.47727 5.8447 5.28598 6.01136 5.03977C6.18182 4.78977 6.26705 4.49432 6.26705 4.15341C6.26705 3.70265 6.10795 3.33144 5.78977 3.03977C5.47538 2.74811 5.00758 2.60227 4.38636 2.60227H2.25568V5.8125ZM10.5724 12.5V3.77273H12.6293V12.5H10.5724ZM11.6065 2.53409C11.2808 2.53409 11.0005 2.42614 10.7656 2.21023C10.5308 1.99053 10.4134 1.72727 10.4134 1.42045C10.4134 1.10985 10.5308 0.84659 10.7656 0.630681C11.0005 0.410984 11.2808 0.301136 11.6065 0.301136C11.9361 0.301136 12.2164 0.410984 12.4474 0.630681C12.6823 0.84659 12.7997 1.10985 12.7997 1.42045C12.7997 1.72727 12.6823 1.99053 12.4474 2.21023C12.2164 2.42614 11.9361 2.53409 11.6065 2.53409ZM19.1023 3.77273V5.36364H14.0852V3.77273H19.1023ZM15.3239 1.68182H17.3807V9.875C17.3807 10.1515 17.4223 10.3636 17.5057 10.5114C17.5928 10.6553 17.7064 10.7538 17.8466 10.8068C17.9867 10.8598 18.142 10.8864 18.3125 10.8864C18.4413 10.8864 18.5587 10.8769 18.6648 10.858C18.7746 10.839 18.858 10.822 18.9148 10.8068L19.2614 12.4148C19.1515 12.4527 18.9943 12.4943 18.7898 12.5398C18.589 12.5852 18.3428 12.6117 18.0511 12.6193C17.536 12.6345 17.072 12.5568 16.6591 12.3864C16.2462 12.2121 15.9186 11.9432 15.6761 11.5795C15.4375 11.2159 15.3201 10.7614 15.3239 10.2159V1.68182ZM23.2685 12.5L19.9844 0.863636H22.2514L24.348 9.41477H24.456L26.6946 0.863636H28.7571L31.0014 9.42045H31.1037L33.2003 0.863636H35.4673L32.1832 12.5H30.1037L27.7741 4.33523H27.6832L25.348 12.5H23.2685ZM36.8381 12.5V3.77273H38.8949V12.5H36.8381ZM37.8722 2.53409C37.5464 2.53409 37.2661 2.42614 37.0312 2.21023C36.7964 1.99053 36.679 1.72727 36.679 1.42045C36.679 1.10985 36.7964 0.84659 37.0312 0.630681C37.2661 0.410984 37.5464 0.301136 37.8722 0.301136C38.2017 0.301136 38.482 0.410984 38.7131 0.630681C38.9479 0.84659 39.0653 1.10985 39.0653 1.42045C39.0653 1.72727 38.9479 1.99053 38.7131 2.21023C38.482 2.42614 38.2017 2.53409 37.8722 2.53409ZM40.8963 12.5V11.1932L45.3963 5.55114V5.47727H41.044V3.77273H47.9134V5.17614L43.6293 10.7216V10.7955H48.0611V12.5H40.8963ZM51.5795 12.5H49.3295L53.4261 0.863636H56.0284L60.1307 12.5H57.8807L54.7727 3.25H54.6818L51.5795 12.5ZM51.6534 7.9375H57.7898V9.63068H51.6534V7.9375ZM61.5724 12.5V3.77273H63.5668V5.22727H63.6577C63.8168 4.72348 64.0895 4.33523 64.4759 4.0625C64.866 3.78598 65.3111 3.64773 65.8111 3.64773C65.9247 3.64773 66.0516 3.65341 66.1918 3.66477C66.3357 3.67235 66.455 3.68561 66.5497 3.70455V5.59659C66.4626 5.56629 66.3243 5.53977 66.1349 5.51705C65.9493 5.49053 65.7694 5.47727 65.5952 5.47727C65.2202 5.47727 64.883 5.55871 64.5838 5.72159C64.2884 5.88068 64.0554 6.10227 63.8849 6.38636C63.7145 6.67045 63.6293 6.99811 63.6293 7.36932V12.5H61.5724ZM72.7429 3.77273V5.36364H67.7259V3.77273H72.7429ZM68.9645 1.68182H71.0213V9.875C71.0213 10.1515 71.063 10.3636 71.1463 10.5114C71.2334 10.6553 71.3471 10.7538 71.4872 10.8068C71.6274 10.8598 71.7827 10.8864 71.9531 10.8864C72.0819 10.8864 72.1993 10.8769 72.3054 10.858C72.4152 10.839 72.4986 10.822 72.5554 10.8068L72.902 12.4148C72.7921 12.4527 72.6349 12.4943 72.4304 12.5398C72.2296 12.5852 71.9834 12.6117 71.6918 12.6193C71.1766 12.6345 70.7126 12.5568 70.2997 12.3864C69.8868 12.2121 69.5592 11.9432 69.3168 11.5795C69.0781 11.2159 68.9607 10.7614 68.9645 10.2159V1.68182ZM81.2358 6.07955L79.3608 6.28409C79.3078 6.0947 79.215 5.91667 79.0824 5.75C78.9536 5.58333 78.7794 5.44886 78.5597 5.34659C78.34 5.24432 78.071 5.19318 77.7528 5.19318C77.3248 5.19318 76.965 5.28598 76.6733 5.47159C76.3854 5.6572 76.2434 5.89773 76.2472 6.19318C76.2434 6.44697 76.3362 6.65341 76.5256 6.8125C76.7188 6.97159 77.0369 7.10227 77.4801 7.20455L78.9688 7.52273C79.7945 7.70076 80.4081 7.98295 80.8097 8.36932C81.215 8.75568 81.4195 9.26136 81.4233 9.88636C81.4195 10.4356 81.2585 10.9205 80.9403 11.3409C80.6259 11.7576 80.1884 12.0833 79.6278 12.3182C79.0672 12.553 78.4233 12.6705 77.696 12.6705C76.6278 12.6705 75.768 12.447 75.1165 12C74.465 11.5492 74.0767 10.9223 73.9517 10.1193L75.9574 9.92614C76.0483 10.3201 76.2415 10.6174 76.5369 10.8182C76.8324 11.0189 77.2169 11.1193 77.6903 11.1193C78.179 11.1193 78.571 11.0189 78.8665 10.8182C79.1657 10.6174 79.3153 10.3693 79.3153 10.0739C79.3153 9.82386 79.2188 9.61742 79.0256 9.45455C78.8362 9.29167 78.5407 9.16667 78.1392 9.07955L76.6506 8.76705C75.8134 8.5928 75.1941 8.29924 74.7926 7.88636C74.3911 7.4697 74.1922 6.94318 74.196 6.30682C74.1922 5.76894 74.3381 5.30303 74.6335 4.90909C74.9328 4.51136 75.3475 4.20455 75.8778 3.98864C76.4119 3.76894 77.0275 3.65909 77.7244 3.65909C78.7472 3.65909 79.5521 3.87689 80.1392 4.3125C80.7301 4.74811 81.0956 5.33712 81.2358 6.07955Z" fill="#737373"/>
</svg>
