<svg width="71" height="31" viewBox="0 0 71 31" fill="none" xmlns="http://www.w3.org/2000/svg">
<mask id="mask0_802_2767" style="mask-type:luminance" maskUnits="userSpaceOnUse" x="0" y="0" width="71" height="31">
<path d="M70.55 0.399902H0V30.9999H70.55V0.399902Z" fill="white"/>
</mask>
<g mask="url(#mask0_802_2767)">
<path d="M25.759 9.17845C22.3778 10.0469 3.80066 14.75 8.1515 21.0565C10.5119 24.4636 14.7479 26.3475 19.0478 27.6436L24.6362 24.3033C25.4273 23.8356 25.9121 22.9672 25.9121 22.0184L25.9632 9.41894C25.9632 9.32541 25.9632 9.21853 25.9504 9.125C25.8867 9.13837 25.8228 9.16508 25.759 9.17845Z" fill="url(#paint0_linear_802_2767)"/>
<path d="M4.0829 22.6063C-1.14832 13.6544 11.8149 7.34791 20.0191 4.24813L14.3029 0.760877C13.5246 0.279875 12.5677 0.279875 11.7766 0.747515L1.32694 7.00053C0.535881 7.46816 0.0510363 8.33664 0.0510363 9.28528L0 21.8848C0 22.8334 0.472086 23.702 1.25039 24.1829L11.649 30.5428C12.4273 31.0238 13.397 31.0238 14.1753 30.5562L15.5533 29.7279C10.8197 28.4719 6.03504 25.96 4.0829 22.6063Z" fill="url(#paint1_linear_802_2767)"/>
<path d="M24.1011 1.48193C17.5429 3.64643 -2.16979 10.5809 4.08216 21.2697C7.32296 26.8147 18.2958 30.0613 23.9863 29.0995L26.653 28.2576C20.7583 26.7612 11.9673 25.2514 8.15229 19.7199C3.80145 13.4134 22.3786 8.71031 25.7598 7.84182C27.4312 7.36083 28.4264 5.55708 27.9672 3.80676C27.5078 2.05646 25.7853 1.01429 24.1011 1.48193Z" fill="#85371F"/>
<path d="M37.5633 11.7577C37.9334 12.1452 37.742 12.0116 38.1884 12.2521C41.1742 13.8955 42.6925 15.1648 44.4787 18.0909C49.3526 26.1076 36.4788 30.2763 34.4884 22.8476C34.2332 21.8855 34.5395 18.0508 35.4199 17.4228L35.3432 17.4897C36.5427 16.7815 36.9382 15.2717 36.2235 14.0959C35.509 12.9202 33.9525 12.5327 32.7531 13.2408C28.9637 16.1268 28.8617 22.7539 31.3113 26.3615C38.1375 36.3956 54.2394 26.642 46.4691 16.7815C44.7722 14.6304 40.5106 10.8759 37.5633 11.7577Z" fill="#85371F"/>
<path d="M67.9043 11.4904C66.5647 10.9426 55.3494 12.252 52.7976 11.8912C51.7642 11.3434 50.4372 11.5572 49.6462 12.4791C48.753 13.5347 48.8933 15.0979 49.9651 15.9664C51.343 16.8482 53.7417 16.7012 56.1022 16.2336C56.4977 20.4156 57.595 29.087 60.5297 29.4211C60.6828 28.9668 60.6699 29.1672 60.6317 28.7664C60.1979 23.8762 60.568 19.7609 60.9761 14.9509C61.2442 14.8708 61.4866 14.7906 61.7162 14.7238C62.3796 14.5367 68.504 12.6662 67.9043 11.4904ZM52.3765 11.7843C52.5169 11.7977 52.6317 11.8378 52.7466 11.8912C52.5807 11.8645 52.4658 11.8244 52.3765 11.7843Z" fill="#85371F"/>
<path d="M34.0462 3.37753H32.547V5.61267H31.4778V2.51434H34.0462V3.37753ZM36.9615 2.46289C37.2406 2.46289 37.4933 2.52959 37.7196 2.66297C37.9497 2.79255 38.1308 2.97927 38.2627 3.22318C38.3985 3.46328 38.4664 3.74338 38.4664 4.06351C38.4664 4.38363 38.3985 4.66564 38.2627 4.90955C38.1308 5.14964 37.9497 5.33638 37.7196 5.46976C37.4933 5.59934 37.2406 5.66412 36.9615 5.66412C36.6033 5.66412 36.3184 5.55551 36.1073 5.33828V6.72167H35.0324V2.51434H36.0564V2.82303C36.2562 2.58294 36.558 2.46289 36.9615 2.46289ZM36.7353 4.80093C36.9238 4.80093 37.0785 4.73615 37.1992 4.60657C37.3198 4.47319 37.3802 4.29217 37.3802 4.06351C37.3802 3.83485 37.3198 3.65574 37.1992 3.52616C37.0785 3.39278 36.9238 3.32608 36.7353 3.32608C36.5467 3.32608 36.392 3.39278 36.2714 3.52616C36.1507 3.65574 36.0903 3.83485 36.0903 4.06351C36.0903 4.29217 36.1507 4.47319 36.2714 4.60657C36.392 4.73615 36.5467 4.80093 36.7353 4.80093ZM40.7323 2.46289C41.2415 2.46289 41.6298 2.58104 41.8977 2.81731C42.1654 3.04979 42.2994 3.40801 42.2994 3.89201V5.61267H41.298V5.21252C41.1433 5.51359 40.8416 5.66412 40.3929 5.66412C40.1553 5.66412 39.9496 5.62221 39.7762 5.53836C39.6027 5.45451 39.4707 5.3421 39.3802 5.20109C39.2934 5.05627 39.2501 4.8924 39.2501 4.70947C39.2501 4.41603 39.3612 4.18927 39.5839 4.02921C39.8063 3.86533 40.1496 3.7834 40.6135 3.7834H41.2245C41.2055 3.45566 40.9887 3.29178 40.5739 3.29178C40.4268 3.29178 40.2777 3.31655 40.127 3.3661C39.9761 3.41183 39.8478 3.47661 39.7423 3.56046L39.3802 2.82303C39.5499 2.7087 39.7554 2.62105 39.9969 2.56007C40.242 2.49529 40.4871 2.46289 40.7323 2.46289ZM40.6927 4.97814C40.8172 4.97814 40.9265 4.94766 41.0208 4.88668C41.115 4.8257 41.1829 4.73615 41.2245 4.61801V4.34933H40.7606C40.4475 4.34933 40.291 4.45413 40.291 4.66374C40.291 4.75902 40.3268 4.83523 40.3985 4.8924C40.4701 4.94956 40.5683 4.97814 40.6927 4.97814ZM43.5117 2.51434H44.5809V3.66335H45.6841V2.51434H46.759V5.61267H45.6841V4.52654H44.5809V5.61267H43.5117V2.51434ZM50.7879 3.37753H49.8035V5.61267H48.7342V3.37753H47.7442V2.51434H50.7879V3.37753ZM53.5238 3.47471C53.9273 3.47852 54.231 3.56999 54.4347 3.7491C54.6383 3.92821 54.7401 4.18355 54.7401 4.51511C54.7401 4.86191 54.6213 5.13249 54.3837 5.32685C54.15 5.52121 53.818 5.61649 53.3881 5.61267H51.7701V2.51434H52.8393V3.47471H53.5238ZM55.0004 2.51434H56.0696V5.61267H55.0004V2.51434ZM53.2806 4.86953C53.5521 4.86953 53.6879 4.74567 53.6879 4.49796C53.6879 4.37601 53.6539 4.28645 53.5861 4.22928C53.5182 4.17212 53.4163 4.14164 53.2806 4.13782H52.8393V4.86381L53.2806 4.86953Z" fill="#85371F"/>
<path d="M59.9513 5.22491V5.50469H57.8272V5.28174L59.0861 4.03589C59.2447 3.87851 59.3515 3.743 59.4062 3.62934C59.464 3.51278 59.4928 3.39619 59.4928 3.27963C59.4928 3.09894 59.4307 2.95905 59.3067 2.85997C59.1856 2.75797 59.0111 2.70697 58.7833 2.70697C58.4285 2.70697 58.1531 2.82063 57.957 3.04794L57.7363 2.8556C57.8546 2.71571 58.0046 2.60789 58.1863 2.53211C58.3708 2.45634 58.5784 2.41846 58.8092 2.41846C59.1179 2.41846 59.3615 2.49277 59.5403 2.6414C59.722 2.78712 59.8129 2.98821 59.8129 3.24466C59.8129 3.40203 59.7783 3.55357 59.7091 3.69929C59.6398 3.84501 59.5086 4.01257 59.3154 4.202L58.2858 5.22491H59.9513ZM61.5324 5.53091C61.2988 5.53091 61.0896 5.46825 60.9051 5.34294C60.7234 5.21763 60.5806 5.03841 60.4768 4.80526C60.3758 4.5692 60.3254 4.29234 60.3254 3.97469C60.3254 3.65703 60.3758 3.38163 60.4768 3.14849C60.5806 2.91243 60.7234 2.73174 60.9051 2.60643C61.0896 2.48112 61.2988 2.41846 61.5324 2.41846C61.766 2.41846 61.9737 2.48112 62.1554 2.60643C62.3399 2.73174 62.4841 2.91243 62.588 3.14849C62.6918 3.38163 62.7437 3.65703 62.7437 3.97469C62.7437 4.29234 62.6918 4.5692 62.588 4.80526C62.4841 5.03841 62.3399 5.21763 62.1554 5.34294C61.9737 5.46825 61.766 5.53091 61.5324 5.53091ZM61.5324 5.2424C61.7083 5.2424 61.8625 5.19285 61.9953 5.09377C62.1307 4.99469 62.2361 4.85043 62.3111 4.661C62.386 4.47157 62.4236 4.24281 62.4236 3.97469C62.4236 3.70657 62.386 3.47781 62.3111 3.28837C62.2361 3.09894 62.1307 2.95468 61.9953 2.8556C61.8625 2.75652 61.7083 2.70697 61.5324 2.70697C61.3563 2.70697 61.2006 2.75652 61.0652 2.8556C60.9324 2.95468 60.8285 3.09894 60.7537 3.28837C60.6786 3.47781 60.6412 3.70657 60.6412 3.97469C60.6412 4.24281 60.6786 4.47157 60.7537 4.661C60.8285 4.85043 60.9324 4.99469 61.0652 5.09377C61.2006 5.19285 61.3563 5.2424 61.5324 5.2424ZM65.2492 5.22491V5.50469H63.1251V5.28174L64.384 4.03589C64.5426 3.87851 64.6494 3.743 64.7041 3.62934C64.7619 3.51278 64.7907 3.39619 64.7907 3.27963C64.7907 3.09894 64.7286 2.95905 64.6046 2.85997C64.4835 2.75797 64.309 2.70697 64.0812 2.70697C63.7264 2.70697 63.451 2.82063 63.2549 3.04794L63.0342 2.8556C63.1524 2.71571 63.3025 2.60789 63.4842 2.53211C63.6687 2.45634 63.8763 2.41846 64.1071 2.41846C64.4156 2.41846 64.6594 2.49277 64.8383 2.6414C65.02 2.78712 65.1108 2.98821 65.1108 3.24466C65.1108 3.40203 65.0762 3.55357 65.007 3.69929C64.9378 3.84501 64.8065 4.01257 64.6133 4.202L63.5837 5.22491H65.2492ZM66.6697 3.75611C66.987 3.7736 67.2278 3.86103 67.3922 4.0184C67.5596 4.17286 67.6431 4.37539 67.6431 4.62603C67.6431 4.80089 67.6013 4.95679 67.5177 5.09377C67.4341 5.22782 67.31 5.3342 67.1456 5.41289C66.9812 5.49157 66.7807 5.53091 66.5443 5.53091C66.3251 5.53091 66.1175 5.49594 65.9213 5.426C65.7281 5.35315 65.5724 5.25698 65.4541 5.13749L65.6055 4.88831C65.7065 4.99323 65.8406 5.07919 66.0078 5.14623C66.1752 5.21034 66.3539 5.2424 66.5443 5.2424C66.7924 5.2424 66.984 5.18848 67.1196 5.08066C67.2553 4.96991 67.323 4.81837 67.323 4.62603C67.323 4.43659 67.2553 4.28797 67.1196 4.18014C66.984 4.07232 66.7794 4.0184 66.5053 4.0184H66.289V3.78671L67.1283 2.72446H65.5795V2.44469H67.5263V2.66763L66.6697 3.75611Z" fill="#85371F"/>
</g>
<defs>
<linearGradient id="paint0_linear_802_2767" x1="22.8445" y1="7.15829" x2="14.4824" y2="23.7767" gradientUnits="userSpaceOnUse">
<stop stop-color="#FFC500"/>
<stop offset="1" stop-color="#FB6902"/>
</linearGradient>
<linearGradient id="paint1_linear_802_2767" x1="16.1129" y1="1.10851" x2="4.60836" y2="23.9715" gradientUnits="userSpaceOnUse">
<stop stop-color="#FFC500"/>
<stop offset="1" stop-color="#FB6902"/>
</linearGradient>
</defs>
</svg>
