<svg width="87" height="14" viewBox="0 0 87 14" fill="none" xmlns="http://www.w3.org/2000/svg">
<path fill-rule="evenodd" clip-rule="evenodd" d="M25.8192 0.306152H16.455L15.138 1.66113V12.3695L16.455 13.6913H25.8192L27.1404 12.3695V1.66354L25.8192 0.306152ZM24.4817 11.0139H17.8136V2.98535H24.4817V11.0139ZM11.1454 13.6919H1.7812L0.462402 12.3725V1.66414L1.7812 0.306756H11.1454L12.4636 1.66414V4.32223H9.80733V2.98354H3.13798V11.0145H9.80733V9.6951H12.4636V12.3725L11.1454 13.6919ZM36.4865 0.306152H44.4922L45.8302 1.66354V12.3719L44.4922 13.6937H36.4865L35.149 12.3719V8.3564H32.4903V13.6931H29.8148V0.306152H32.4903V5.6766H35.149V1.66113L36.4865 0.306152ZM37.8246 11.0139H43.1752V2.98535H37.8246V11.0139ZM59.1864 13.6919H49.8222L48.504 12.3725V9.6951H51.179V11.0145H57.8489V8.35701H53.8359V5.67962H57.8489V2.98354H51.179V4.32223H48.504V1.66414L49.8222 0.306756H59.1864L60.5052 1.66414V5.67962L59.1864 7.01831L60.5052 8.35701V12.3725L59.1864 13.6919ZM85.3729 0.306152H64.4978L63.1808 1.66113V12.3695L64.4978 13.6931H85.3742L86.6948 12.3713V1.66354L85.3729 0.306152ZM67.4658 9.42072H65.8533V11.0344H67.4658V9.42072ZM65.8533 2.96725H72.2923L73.0883 3.78675V7.82092L72.2923 8.62775H65.8533V2.96725ZM67.4664 7.01107H71.4855V4.58092H67.4664V7.01107ZM83.2292 2.96725H75.176L74.3818 3.78373V9.04082L75.176 9.83499H78.4009V11.035H80.0139V9.83378H83.2292L84.0354 9.03961V3.78373L83.2292 2.96725ZM78.4009 8.22132H75.9948V4.58092H78.4009V8.22132ZM82.4332 8.22132H80.0139V4.58092H82.4332V8.22132Z" fill="#737373"/>
</svg>
